<?xml version="1.0" standalone="no"?>
<!DOCTYPE svg PUBLIC "-//W3C//DTD SVG 20010904//EN"
 "http://www.w3.org/TR/2001/REC-SVG-20010904/DTD/svg10.dtd">
<svg version="1.0" xmlns="http://www.w3.org/2000/svg"
 width="800.000000pt" height="800.000000pt" viewBox="0 0 800.000000 800.000000"
 preserveAspectRatio="xMidYMid meet">
<metadata>
Created by potrace 1.14, written by Peter Selinger 2001-2017
</metadata>
<g transform="translate(0.000000,800.000000) scale(0.100000,-0.100000)"
fill="#000000" stroke="none">
<path d="M0 7860 c0 -77 2 -140 4 -140 11 0 147 253 142 266 -4 10 -23 14 -76
14 l-70 0 0 -140z"/>
<path d="M2716 7913 c13 -49 38 -140 55 -205 18 -64 35 -121 38 -127 8 -12
201 68 201 84 0 5 -19 83 -42 173 l-43 162 -117 0 -116 0 24 -87z"/>
<path d="M3970 7925 l0 -75 79 0 c43 0 93 -3 110 -6 l31 -6 0 81 0 81 -110 0
-110 0 0 -75z"/>
<path d="M5171 7963 c-62 -225 -89 -328 -88 -328 1 -1 48 -22 105 -47 56 -26
102 -45 102 -42 0 2 27 103 60 225 33 121 60 222 60 225 0 2 -52 4 -115 4
l-114 0 -10 -37z"/>
<path d="M450 7376 c0 -2 8 -10 18 -17 15 -13 16 -12 3 4 -13 16 -21 21 -21
13z"/>
<path d="M3915 6203 c-73 -6 -219 -34 -300 -57 -156 -45 -282 -104 -445 -210
-122 -79 -139 -89 -550 -306 -190 -100 -444 -235 -565 -300 -121 -65 -438
-233 -705 -375 -267 -142 -528 -280 -580 -308 -52 -28 -246 -131 -430 -228
l-335 -178 -3 -123 -3 -124 43 -22 c48 -24 68 -35 758 -401 272 -145 522 -278
555 -296 48 -26 778 -413 962 -510 l41 -21 -691 -585 c-380 -321 -694 -583
-699 -582 -4 2 -7 -1 -5 -5 1 -5 -215 -192 -481 -417 l-482 -408 0 -144 c0
-87 4 -142 9 -138 5 3 268 224 583 491 315 267 579 488 587 492 8 3 26 18 40
33 14 15 296 255 626 534 330 278 624 527 654 553 29 26 58 50 65 53 13 8 528
-265 631 -334 204 -137 501 -239 723 -248 l52 -3 0 -1018 0 -1018 110 0 110 0
0 133 c0 74 2 136 5 139 3 3 5 402 5 886 l0 881 37 6 c181 27 392 100 553 189
280 156 651 346 662 340 12 -7 1020 -858 1078 -910 14 -12 88 -76 166 -141 77
-65 399 -336 714 -603 316 -267 577 -486 582 -488 4 -2 8 61 8 140 l0 143
-491 415 c-270 228 -575 486 -677 573 -103 86 -194 166 -204 177 -9 11 -19 20
-22 20 -12 0 -941 791 -937 798 3 6 386 212 781 419 69 36 139 74 155 83 17
10 84 46 150 80 66 35 140 74 165 88 25 13 97 51 160 85 63 33 129 67 145 77
17 10 84 46 150 80 66 35 172 91 235 125 63 34 177 94 253 134 l137 72 0 174
0 174 -52 29 c-29 17 -449 240 -933 497 -1021 542 -971 516 -1275 677 -648
345 -868 463 -904 486 -140 88 -358 171 -530 202 -105 19 -303 31 -391 23z
m450 -602 c255 -57 464 -160 665 -329 370 -310 573 -797 531 -1272 -18 -200
-71 -389 -156 -560 -43 -84 -141 -233 -193 -290 l-40 -45 -24 21 c-22 19 -359
305 -366 310 -2 1 19 31 46 66 261 333 289 764 74 1133 -61 104 -218 264 -325
329 -187 116 -419 170 -625 146 -187 -23 -350 -85 -489 -188 -432 -322 -534
-909 -235 -1360 30 -45 33 -55 21 -67 -71 -66 -375 -315 -383 -312 -20 7 -127
171 -176 272 -87 177 -136 360 -149 558 -21 314 48 607 204 872 226 385 613
651 1060 730 119 21 441 13 560 -14z m-170 -946 c177 -46 320 -183 382 -364
28 -81 31 -226 8 -316 -48 -183 -208 -342 -391 -389 -77 -20 -212 -20 -284 -1
-191 51 -346 205 -394 391 -34 131 -15 291 47 409 64 120 207 234 338 269 72
20 220 20 294 1z m-722 -1344 c110 -82 301 -159 440 -176 l57 -7 0 -261 0
-260 -75 6 c-283 24 -617 167 -823 352 l-51 46 197 169 c108 92 198 169 200
169 2 1 26 -17 55 -38z m1330 -183 c106 -88 196 -165 201 -170 12 -10 0 -20
-126 -104 -190 -127 -400 -205 -641 -239 l-47 -6 2 261 3 262 90 23 c102 26
191 61 262 104 26 16 52 30 56 30 5 1 95 -72 200 -161z"/>
</g>
</svg>
